<mxfile host="app.diagrams.net" modified="2023-10-16T02:39:45.575Z" agent="Mozilla/5.0 (Windows NT 10.0; Win64; x64) AppleWebKit/537.36 (KHTML, like Gecko) Chrome/114.0.0.0 Safari/537.36 Edg/114.0.1823.41" etag="yov-HLzgrWXFTG-eJSCG" version="22.0.4" type="github">
  <diagram id="C5RBs43oDa-KdzZeNtuy" name="Page-1">
    <mxGraphModel dx="899" dy="608" grid="1" gridSize="10" guides="1" tooltips="1" connect="1" arrows="1" fold="1" page="1" pageScale="1" pageWidth="827" pageHeight="1169" math="0" shadow="0">
      <root>
        <mxCell id="WIyWlLk6GJQsqaUBKTNV-0" />
        <mxCell id="WIyWlLk6GJQsqaUBKTNV-1" parent="WIyWlLk6GJQsqaUBKTNV-0" />
        <mxCell id="2gW45UA1HZnukMosITkk-6" value="" style="edgeStyle=orthogonalEdgeStyle;rounded=0;orthogonalLoop=1;jettySize=auto;html=1;" edge="1" parent="WIyWlLk6GJQsqaUBKTNV-1" source="2gW45UA1HZnukMosITkk-0" target="2gW45UA1HZnukMosITkk-1">
          <mxGeometry relative="1" as="geometry" />
        </mxCell>
        <mxCell id="2gW45UA1HZnukMosITkk-0" value="MULAI" style="rounded=1;whiteSpace=wrap;html=1;" vertex="1" parent="WIyWlLk6GJQsqaUBKTNV-1">
          <mxGeometry x="370" y="70" width="120" height="60" as="geometry" />
        </mxCell>
        <mxCell id="2gW45UA1HZnukMosITkk-7" value="" style="edgeStyle=orthogonalEdgeStyle;rounded=0;orthogonalLoop=1;jettySize=auto;html=1;" edge="1" parent="WIyWlLk6GJQsqaUBKTNV-1" source="2gW45UA1HZnukMosITkk-1" target="2gW45UA1HZnukMosITkk-2">
          <mxGeometry relative="1" as="geometry" />
        </mxCell>
        <mxCell id="2gW45UA1HZnukMosITkk-1" value="masukan alas" style="shape=parallelogram;perimeter=parallelogramPerimeter;whiteSpace=wrap;html=1;fixedSize=1;" vertex="1" parent="WIyWlLk6GJQsqaUBKTNV-1">
          <mxGeometry x="370" y="180" width="120" height="60" as="geometry" />
        </mxCell>
        <mxCell id="2gW45UA1HZnukMosITkk-9" value="" style="edgeStyle=orthogonalEdgeStyle;rounded=0;orthogonalLoop=1;jettySize=auto;html=1;" edge="1" parent="WIyWlLk6GJQsqaUBKTNV-1" source="2gW45UA1HZnukMosITkk-2" target="2gW45UA1HZnukMosITkk-3">
          <mxGeometry relative="1" as="geometry" />
        </mxCell>
        <mxCell id="2gW45UA1HZnukMosITkk-2" value="masukan tinggi" style="shape=parallelogram;perimeter=parallelogramPerimeter;whiteSpace=wrap;html=1;fixedSize=1;" vertex="1" parent="WIyWlLk6GJQsqaUBKTNV-1">
          <mxGeometry x="325" y="280" width="210" height="60" as="geometry" />
        </mxCell>
        <mxCell id="2gW45UA1HZnukMosITkk-10" value="" style="edgeStyle=orthogonalEdgeStyle;rounded=0;orthogonalLoop=1;jettySize=auto;html=1;" edge="1" parent="WIyWlLk6GJQsqaUBKTNV-1" source="2gW45UA1HZnukMosITkk-3" target="2gW45UA1HZnukMosITkk-4">
          <mxGeometry relative="1" as="geometry" />
        </mxCell>
        <mxCell id="2gW45UA1HZnukMosITkk-3" value="Luas=1/2*(alas*tinggi)" style="rounded=0;whiteSpace=wrap;html=1;" vertex="1" parent="WIyWlLk6GJQsqaUBKTNV-1">
          <mxGeometry x="335" y="380" width="190" height="70" as="geometry" />
        </mxCell>
        <mxCell id="2gW45UA1HZnukMosITkk-11" value="" style="edgeStyle=orthogonalEdgeStyle;rounded=0;orthogonalLoop=1;jettySize=auto;html=1;" edge="1" parent="WIyWlLk6GJQsqaUBKTNV-1" source="2gW45UA1HZnukMosITkk-4" target="2gW45UA1HZnukMosITkk-5">
          <mxGeometry relative="1" as="geometry" />
        </mxCell>
        <mxCell id="2gW45UA1HZnukMosITkk-4" value="tampil luas segitiga" style="shape=parallelogram;perimeter=parallelogramPerimeter;whiteSpace=wrap;html=1;fixedSize=1;" vertex="1" parent="WIyWlLk6GJQsqaUBKTNV-1">
          <mxGeometry x="345" y="480" width="170" height="60" as="geometry" />
        </mxCell>
        <mxCell id="2gW45UA1HZnukMosITkk-5" value="selesai" style="rounded=1;whiteSpace=wrap;html=1;" vertex="1" parent="WIyWlLk6GJQsqaUBKTNV-1">
          <mxGeometry x="370" y="570" width="120" height="60" as="geometry" />
        </mxCell>
      </root>
    </mxGraphModel>
  </diagram>
</mxfile>
